<svg xmlns="http://www.w3.org/2000/svg" viewBox="0 0 400 250" width="400" height="250" role="img" aria-label="India Gate, Delhi">
  <defs>
    <linearGradient id="sky" x1="0" y1="0" x2="0" y2="1">
      <stop offset="0" stop-color="#eaf7f3"/>
      <stop offset="1" stop-color="#ffffff"/>
    </linearGradient>
  </defs>
  <rect width="400" height="250" fill="url(#sky)"/>
  <circle cx="330" cy="58" r="24" fill="#e1a400" opacity=".22"/>

  <g fill="#006b5b">
    <rect x="140" y="64" width="120" height="152" rx="3"/>
  </g>
  <g fill="#004f45">
    <rect x="132" y="56" width="136" height="14" rx="3"/>
    <rect x="150" y="40" width="100" height="18" rx="3"/>
    <rect x="132" y="96" width="136" height="8" rx="2"/>
  </g>
  <path d="M180 40 q20 -20 40 0 z" fill="#e1a400"/>
  <path d="M170 216 V138 a30 30 0 0 1 60 0 V216 Z" fill="#eaf7f3" opacity=".92"/>
  <rect x="190" y="78" width="20" height="10" rx="2" fill="#e1a400"/>
  <g fill="#006b5b" opacity=".35">
    <rect x="52" y="200" width="70" height="16" rx="8"/><rect x="278" y="200" width="70" height="16" rx="8"/>
  </g>
  <rect x="30" y="214" width="340" height="4" rx="2" fill="#004f45" opacity=".25"/>
</svg>
